<?xml version="1.0" encoding="utf-8"?>
<!-- Generator: Adobe Illustrator 24.2.0, SVG Export Plug-In . SVG Version: 6.00 Build 0)  -->
<svg version="1.1" id="Capa_1" xmlns="http://www.w3.org/2000/svg" xmlns:xlink="http://www.w3.org/1999/xlink" x="0px" y="0px"
	 viewBox="0 0 2267.7 2267.7" style="enable-background:new 0 0 2267.7 2267.7;" xml:space="preserve">
<style type="text/css">
	.st0{fill:#F05A2A;}
	.st1{fill:#F8EC3A;}
	.st2{fill:#FFFFFF;}
	.st3{fill:#C6421E;}
	.st4{fill:#AA290B;}
	.st5{fill:#2B2B38;}
	.st6{fill:#F0F1F1;}
	.st7{fill:#A5DCF0;}
	.st8{opacity:0.3;fill:#E6E6E7;enable-background:new    ;}
	.st9{opacity:0.5;fill:#FFFFFF;enable-background:new    ;}
</style>
<g>
	<g>
		<g>
			<g>
				<g>
					<path class="st0" d="M1126.8,1688.1c-95.5,2.4-177.2,110-175.2,186.5c1.9,76.5,189.2,366.1,189.2,366.1
						c52.9-132.6,172.3-300,170.4-375.2C1309.4,1790.3,1222.4,1685.7,1126.8,1688.1z"/>
					<path class="st1" d="M1127,1693.6c-78.1,2-144.8,89.9-143.2,152.4c1.6,62.6,154.6,299.2,154.6,299.2
						c43.2-108.3,140.9-245.1,139.3-306.6C1276.1,1777.1,1205.1,1691.6,1127,1693.6z"/>
					<path class="st2" d="M1127,1693c-60.2,1.5-111.5,69.3-110.3,117.5c1.2,48.2,119.2,230.5,119.2,230.5
						c33.3-83.5,108.5-188.9,107.3-236.3C1241.9,1757.4,1187.1,1691.5,1127,1693z"/>
				</g>
				<g>
					<path class="st0" d="M1054.5,1727.8c-62.3-12.3-131,45.6-140.9,95.5c-9.9,49.9,69.5,265.1,69.5,265.1
						c53.6-78.3,155.5-169.5,165.2-218.6C1158,1820.7,1116.8,1740.1,1054.5,1727.8z"/>
					<path class="st1" d="M1053.7,1731.4c-50.9-10.1-107,37.2-115.1,78.1c-8.1,40.8,56.8,216.7,56.8,216.7
						c43.8-64,127.1-138.6,135-178.7C1138.4,1807.3,1104.7,1741.5,1053.7,1731.4z"/>
					<path class="st2" d="M1053.8,1731c-39.2-7.8-82.5,28.7-88.7,60.1c-6.2,31.4,43.8,166.9,43.8,166.9
						c33.8-49.3,97.9-106.8,104.1-137.7C1119.1,1789.5,1093.1,1738.7,1053.8,1731z"/>
				</g>
				<g>
					<path class="st0" d="M1083,1712.7c-37,16.1-52,71.2-39.1,100.8c12.9,29.7,132.1,113.4,132.1,113.4
						c-0.3-60.3,20-144.8,7.3-173.9C1170.7,1723.8,1120,1696.6,1083,1712.7z"/>
					<path class="st1" d="M1083.9,1714.8c-30.3,13.1-42.4,58.2-31.9,82.4c10.5,24.2,107.9,92.7,107.9,92.7
						c-0.2-49.3,16.3-118.3,6-142.2C1155.6,1723.9,1114.2,1701.7,1083.9,1714.8z"/>
					<path class="st2" d="M1083.8,1714.6c-23.3,10.1-32.7,44.8-24.6,63.5c8.1,18.7,83.2,71.4,83.2,71.4c-0.2-38,12.6-91.2,4.6-109.5
						C1139,1721.6,1107.1,1704.5,1083.8,1714.6z"/>
				</g>
			</g>
		</g>
	</g>
	<g>
		<path class="st3" d="M887.5,1241.1c0,0-117.7,67.4-175.8,186.6c-73.8,151.3-93.3,382.9-64.6,397.7c28.7,14.8,63.4-96.7,121.3-162
			c95.7-108.1,178.3-101.6,178.3-101.6L887.5,1241.1z"/>
		<path class="st4" d="M1332.1,1241.1c0,0,117.7,67.4,175.8,186.6c73.8,151.3,93.3,382.9,64.6,397.7c-28.7,14.8-63.4-96.7-121.3-162
			c-95.8-108.1-178.3-101.6-178.3-101.6L1332.1,1241.1z"/>
		<path class="st5" d="M1282.4,1749.7c13.2-40.8,101.8-328.8,101.8-686.5c0-295.8-170.8-463.6-274.3-546.6
			c-103.4,82.9-274.3,250.8-274.3,546.6c0,357.7,88.6,645.7,101.8,686.5H1282.4z"/>
		<path class="st2" d="M762.7,900.9c0,452.9,112.2,721.8,128.8,773.5h436.7c16.7-51.7,128.9-320.6,128.9-773.5
			c0-199.6-61.5-387.5-138.7-535.5H901.3C824.1,513.4,762.7,701.3,762.7,900.9z"/>
		<path class="st3" d="M1109.9,87.9c-61.1,49-140.9,147.9-208.5,277.6h417.1C1250.8,235.8,1171,136.9,1109.9,87.9z"/>
		<path class="st6" d="M1318.4,365.4h-208.5v1309h218.4c16.7-51.7,128.9-320.6,128.9-773.5C1457.1,701.3,1395.7,513.4,1318.4,365.4z
			"/>
		<g>
			<path class="st7" d="M1109.9,561.5c-82.6,0-149.6,67-149.6,149.6c0,82.6,67,149.6,149.6,149.6c82.6,0,149.6-67,149.6-149.6
				C1259.5,628.4,1192.5,561.5,1109.9,561.5z"/>
			<g>
				<path class="st5" d="M1264.2,799.3c48.3-85.2,18.4-193.4-66.9-241.8c-85.2-48.3-193.5-18.4-241.8,66.9
					c-48.3,85.2-18.4,193.4,66.9,241.8C1107.7,914.5,1215.9,884.5,1264.2,799.3z M1230.1,780c-37.6,66.4-121.9,89.7-188.3,52.1
					c-66.4-37.6-89.7-122-52.1-188.4c37.6-66.4,121.9-89.7,188.3-52.1C1244.4,629.3,1267.8,713.6,1230.1,780z"/>
				<path class="st8" d="M1241.3,786.3c41.1-72.6,15.6-164.7-56.9-205.8c-72.5-41.1-164.7-15.6-205.8,56.9
					c-41.1,72.6-15.6,164.7,56.9,205.8C1108,884.3,1200.1,858.9,1241.3,786.3z"/>
				<path class="st9" d="M993.5,753.8c-16.5-49.6,0-106.2,44.6-138.5c44.6-32.3,103.6-30.3,145.5,0.9c0,0-71.4,28.9-108.9,56
					C1036.1,700.2,993.5,753.8,993.5,753.8z"/>
			</g>
		</g>
		<path class="st3" d="M1110.9,1294.5h-0.1h-0.1c-29.5,0-49.1,45.7-49.1,106.9c0,61.2,6.5,425.3,49.1,425.3c0,0,0.1,0,0.1,0
			c0,0,0.1,0,0.1,0c42.5,0,49.1-364.1,49.1-425.3C1159.9,1340.2,1140.3,1294.5,1110.9,1294.5z"/>
		<path class="st4" d="M1109.9,365.4h208.6c-67.7-129.6-147.4-228.5-208.5-277.6c0,0,0,0,0,0L1109.9,365.4L1109.9,365.4z"/>
		<path class="st4" d="M1110.9,1294.5h-0.1v532.2c0,0,0.1,0,0.1,0c42.5,0,49.1-364.1,49.1-425.3
			C1159.9,1340.2,1140.3,1294.5,1110.9,1294.5z"/>
	</g>
</g>
</svg>
